<?xml version="1.0" encoding="UTF-8"?>
<svg width="1500" height="500" version="1.1" viewBox="0 0 1500 500" xmlns="http://www.w3.org/2000/svg">
 <g>
  <path d="M0 0h1000v500H0z" fill="none"/>
  <path d="M100 100h800v300H100z" fill="none"/>
  <path d="M150 150 H850 V350 H150 Z" fill="none"/>
  <path d="m150 150 700 0c0 0-50 50-50 100s50 100 50 100l-700 0c0 0 50-50 50-100s-50-100-50-100z" fill="#000"/>
  <text x="200" y="280" fill="#000" font-family="Arial Black" font-size="120">MARS</text>
  <text x="150" y="400" fill="#666" font-family="Arial" font-size="60">COMPANY</text>
 </g>
 <g transform="translate(900,0)">
  <circle cx="250" cy="250" r="200" fill="#008ACC"/>
  <path d="M250 50c-110.457 0-200 89.543-200 200s89.543 200 200 200 200-89.543 200-200S360.457 50 250 50zm0 50c82.843 0 150 67.157 150 150s-67.157 150-150 150S100 332.843 100 250 167.157 100 250 100z" fill="#004F87"/>
  <path d="M250 150c-55.228 0-100 44.772-100 100s44.772 100 100 100 100-44.772 100-100-44.772-100-100-100z" fill="#008ACC"/>
 </g>
</svg>
