<?xml version="1.0" encoding="UTF-8" standalone="no"?>
<svg xmlns="http://www.w3.org/2000/svg" viewBox="0 0 1500 500">
  <g>
    <path d="M0 50 L150 50 L200 150 L250 50 L400 50 L300 250 L200 250 L0 50" fill="#000"/>
    <path d="M450 50 C500 50 550 100 550 150 C550 200 500 250 450 250 C400 250 350 200 350 150 C350 100 400 50 450 50" fill="#000"/>
    <path d="M600 50 L750 50 L800 150 L850 50 L1000 50 L900 250 L800 250 L600 50" fill="#000"/>
    <path d="M1050 50 C1150 50 1200 150 1150 250 L1000 250 L1050 50" fill="#000"/>
    
    <text x="0" y="400" font-family="Arial" font-size="150" fill="#666">COMPANY</text>
    
    <g transform="translate(1200, 50)">
      <circle cx="150" cy="150" r="150" fill="#008ACC"/>
      <path d="M150 0 L300 200 A150 150 0 1 1 0 200 Z" fill="#fff"/>
      <path d="M150 30 L270 190 A120 120 0 1 1 30 190 Z" fill="#008ACC"/>
    </g>
  </g>
</svg>
